%TF.GenerationSoftware,KiCad,Pcbnew,9.0.5*%
%TF.CreationDate,2025-11-10T02:39:44+01:00*%
%TF.ProjectId,kaasch-keys-pbc-left,6b616173-6368-42d6-9b65-79732d706263,rev?*%
%TF.SameCoordinates,Original*%
%TF.FileFunction,Component,L2,Bot*%
%TF.FilePolarity,Positive*%
%FSLAX46Y46*%
G04 Gerber Fmt 4.6, Leading zero omitted, Abs format (unit mm)*
G04 Created by KiCad (PCBNEW 9.0.5) date 2025-11-10 02:39:44*
%MOMM*%
%LPD*%
G01*
G04 APERTURE LIST*
%TA.AperFunction,ComponentMain*%
%ADD10C,0.300000*%
%TD*%
%TA.AperFunction,ComponentOutline,Courtyard*%
%ADD11C,0.100000*%
%TD*%
%TA.AperFunction,ComponentPin*%
%ADD12P,0.360000X4X0.000000*%
%TD*%
%TA.AperFunction,ComponentPin*%
%ADD13C,0.100000*%
%TD*%
G04 APERTURE END LIST*
D10*
%TO.C,D9*%
%TO.CFtp,D_1206_3216Metric*%
%TO.CVal,1N4148*%
%TO.CLbN,Diode_SMD*%
%TO.CMnt,SMD*%
%TO.CRot,0*%
X104259250Y-104682000D03*
D11*
X106534250Y-103557000D02*
X106534250Y-105807000D01*
X101984250Y-105807000D01*
X101984250Y-103557000D01*
X106534250Y-103557000D01*
D12*
%TO.P,D9,1,K*%
X105659250Y-104682000D03*
D13*
%TO.P,D9,2,A*%
X102859250Y-104682000D03*
%TD*%
D10*
%TO.C,D28*%
%TO.CFtp,D_1206_3216Metric*%
%TO.CVal,1N4148*%
%TO.CLbN,Diode_SMD*%
%TO.CMnt,SMD*%
%TO.CRot,0*%
X180459250Y-85632000D03*
D11*
X182734250Y-84507000D02*
X182734250Y-86757000D01*
X178184250Y-86757000D01*
X178184250Y-84507000D01*
X182734250Y-84507000D01*
D12*
%TO.P,D28,1,K*%
X181859250Y-85632000D03*
D13*
%TO.P,D28,2,A*%
X179059250Y-85632000D03*
%TD*%
D10*
%TO.C,D26*%
%TO.CFtp,D_1206_3216Metric*%
%TO.CVal,1N4148*%
%TO.CLbN,Diode_SMD*%
%TO.CMnt,SMD*%
%TO.CRot,0*%
X180459250Y-47532000D03*
D11*
X182734250Y-46407000D02*
X182734250Y-48657000D01*
X178184250Y-48657000D01*
X178184250Y-46407000D01*
X182734250Y-46407000D01*
D12*
%TO.P,D26,1,K*%
X181859250Y-47532000D03*
D13*
%TO.P,D26,2,A*%
X179059250Y-47532000D03*
%TD*%
D10*
%TO.C,D27*%
%TO.CFtp,D_1206_3216Metric*%
%TO.CVal,1N4148*%
%TO.CLbN,Diode_SMD*%
%TO.CMnt,SMD*%
%TO.CRot,0*%
X180459250Y-66582000D03*
D11*
X182734250Y-65457000D02*
X182734250Y-67707000D01*
X178184250Y-67707000D01*
X178184250Y-65457000D01*
X182734250Y-65457000D01*
D12*
%TO.P,D27,1,K*%
X181859250Y-66582000D03*
D13*
%TO.P,D27,2,A*%
X179059250Y-66582000D03*
%TD*%
D10*
%TO.C,D32*%
%TO.CFtp,D_1206_3216Metric*%
%TO.CVal,1N4148*%
%TO.CLbN,Diode_SMD*%
%TO.CMnt,SMD*%
%TO.CRot,0*%
X199509250Y-66582000D03*
D11*
X201784250Y-65457000D02*
X201784250Y-67707000D01*
X197234250Y-67707000D01*
X197234250Y-65457000D01*
X201784250Y-65457000D01*
D12*
%TO.P,D32,1,K*%
X200909250Y-66582000D03*
D13*
%TO.P,D32,2,A*%
X198109250Y-66582000D03*
%TD*%
D10*
%TO.C,D6*%
%TO.CFtp,D_1206_3216Metric*%
%TO.CVal,1N4148*%
%TO.CLbN,Diode_SMD*%
%TO.CMnt,SMD*%
%TO.CRot,0*%
X104259250Y-47532000D03*
D11*
X106534250Y-46407000D02*
X106534250Y-48657000D01*
X101984250Y-48657000D01*
X101984250Y-46407000D01*
X106534250Y-46407000D01*
D12*
%TO.P,D6,1,K*%
X105659250Y-47532000D03*
D13*
%TO.P,D6,2,A*%
X102859250Y-47532000D03*
%TD*%
D10*
%TO.C,D15*%
%TO.CFtp,D_1206_3216Metric*%
%TO.CVal,1N4148*%
%TO.CLbN,Diode_SMD*%
%TO.CMnt,SMD*%
%TO.CRot,0*%
X123309250Y-123732000D03*
D11*
X125584250Y-122607000D02*
X125584250Y-124857000D01*
X121034250Y-124857000D01*
X121034250Y-122607000D01*
X125584250Y-122607000D01*
D12*
%TO.P,D15,1,K*%
X124709250Y-123732000D03*
D13*
%TO.P,D15,2,A*%
X121909250Y-123732000D03*
%TD*%
D10*
%TO.C,D7*%
%TO.CFtp,D_1206_3216Metric*%
%TO.CVal,1N4148*%
%TO.CLbN,Diode_SMD*%
%TO.CMnt,SMD*%
%TO.CRot,0*%
X104109250Y-66532000D03*
D11*
X106384250Y-65407000D02*
X106384250Y-67657000D01*
X101834250Y-67657000D01*
X101834250Y-65407000D01*
X106384250Y-65407000D01*
D12*
%TO.P,D7,1,K*%
X105509250Y-66532000D03*
D13*
%TO.P,D7,2,A*%
X102709250Y-66532000D03*
%TD*%
D10*
%TO.C,D19*%
%TO.CFtp,D_1206_3216Metric*%
%TO.CVal,1N4148*%
%TO.CLbN,Diode_SMD*%
%TO.CMnt,SMD*%
%TO.CRot,0*%
X142359250Y-104682000D03*
D11*
X144634250Y-103557000D02*
X144634250Y-105807000D01*
X140084250Y-105807000D01*
X140084250Y-103557000D01*
X144634250Y-103557000D01*
D12*
%TO.P,D19,1,K*%
X143759250Y-104682000D03*
D13*
%TO.P,D19,2,A*%
X140959250Y-104682000D03*
%TD*%
D10*
%TO.C,J2*%
%TO.CFtp,PinSocket_1x12_P2.54mm_Vertical*%
%TO.CVal,Conn_01x12_Pin*%
%TO.CLbN,Connector_PinSocket_2.54mm*%
%TO.CMnt,TH*%
%TO.CRot,0*%
X212209250Y-38134000D03*
D11*
X214004250Y-36339000D02*
X214004250Y-67829000D01*
X210464250Y-67829000D01*
X210464250Y-36339000D01*
X214004250Y-36339000D01*
D12*
%TO.P,J2,1,Pin_1*%
X212209250Y-38134000D03*
D13*
%TO.P,J2,2,Pin_2*%
X212209250Y-40674000D03*
%TO.P,J2,3,Pin_3*%
X212209250Y-43214000D03*
%TO.P,J2,4,Pin_4*%
X212209250Y-45754000D03*
%TO.P,J2,5,Pin_5*%
X212209250Y-48294000D03*
%TO.P,J2,6,Pin_6*%
X212209250Y-50834000D03*
%TO.P,J2,7,Pin_7*%
X212209250Y-53374000D03*
%TO.P,J2,8,Pin_8*%
X212209250Y-55914000D03*
%TO.P,J2,9,Pin_9*%
X212209250Y-58454000D03*
%TO.P,J2,10,Pin_10*%
X212209250Y-60994000D03*
%TO.P,J2,11,Pin_11*%
X212209250Y-63534000D03*
%TO.P,J2,12,Pin_12*%
X212209250Y-66074000D03*
%TD*%
D10*
%TO.C,D18*%
%TO.CFtp,D_1206_3216Metric*%
%TO.CVal,1N4148*%
%TO.CLbN,Diode_SMD*%
%TO.CMnt,SMD*%
%TO.CRot,0*%
X142359250Y-85632000D03*
D11*
X144634250Y-84507000D02*
X144634250Y-86757000D01*
X140084250Y-86757000D01*
X140084250Y-84507000D01*
X144634250Y-84507000D01*
D12*
%TO.P,D18,1,K*%
X143759250Y-85632000D03*
D13*
%TO.P,D18,2,A*%
X140959250Y-85632000D03*
%TD*%
D10*
%TO.C,D13*%
%TO.CFtp,D_1206_3216Metric*%
%TO.CVal,1N4148*%
%TO.CLbN,Diode_SMD*%
%TO.CMnt,SMD*%
%TO.CRot,0*%
X123309250Y-85632000D03*
D11*
X125584250Y-84507000D02*
X125584250Y-86757000D01*
X121034250Y-86757000D01*
X121034250Y-84507000D01*
X125584250Y-84507000D01*
D12*
%TO.P,D13,1,K*%
X124709250Y-85632000D03*
D13*
%TO.P,D13,2,A*%
X121909250Y-85632000D03*
%TD*%
D10*
%TO.C,D35*%
%TO.CFtp,D_1206_3216Metric*%
%TO.CVal,1N4148*%
%TO.CLbN,Diode_SMD*%
%TO.CMnt,SMD*%
%TO.CRot,-25*%
X216527250Y-152434000D03*
D11*
X219064544Y-152375860D02*
X218113654Y-154415051D01*
X213989955Y-152492139D01*
X214940845Y-150452948D01*
X219064544Y-152375860D01*
D12*
%TO.P,D35,1,K*%
X217796081Y-153025666D03*
D13*
%TO.P,D35,2,A*%
X215258419Y-151842334D03*
%TD*%
D10*
%TO.C,D17*%
%TO.CFtp,D_1206_3216Metric*%
%TO.CVal,1N4148*%
%TO.CLbN,Diode_SMD*%
%TO.CMnt,SMD*%
%TO.CRot,0*%
X142359250Y-66582000D03*
D11*
X144634250Y-65457000D02*
X144634250Y-67707000D01*
X140084250Y-67707000D01*
X140084250Y-65457000D01*
X144634250Y-65457000D01*
D12*
%TO.P,D17,1,K*%
X143759250Y-66582000D03*
D13*
%TO.P,D17,2,A*%
X140959250Y-66582000D03*
%TD*%
D10*
%TO.C,D5*%
%TO.CFtp,D_1206_3216Metric*%
%TO.CVal,1N4148*%
%TO.CLbN,Diode_SMD*%
%TO.CMnt,SMD*%
%TO.CRot,0*%
X85209250Y-123732000D03*
D11*
X87484250Y-122607000D02*
X87484250Y-124857000D01*
X82934250Y-124857000D01*
X82934250Y-122607000D01*
X87484250Y-122607000D01*
D12*
%TO.P,D5,1,K*%
X86609250Y-123732000D03*
D13*
%TO.P,D5,2,A*%
X83809250Y-123732000D03*
%TD*%
D10*
%TO.C,D24*%
%TO.CFtp,D_1206_3216Metric*%
%TO.CVal,1N4148*%
%TO.CLbN,Diode_SMD*%
%TO.CMnt,SMD*%
%TO.CRot,0*%
X161409250Y-104682000D03*
D11*
X163684250Y-103557000D02*
X163684250Y-105807000D01*
X159134250Y-105807000D01*
X159134250Y-103557000D01*
X163684250Y-103557000D01*
D12*
%TO.P,D24,1,K*%
X162809250Y-104682000D03*
D13*
%TO.P,D24,2,A*%
X160009250Y-104682000D03*
%TD*%
D10*
%TO.C,D10*%
%TO.CFtp,D_1206_3216Metric*%
%TO.CVal,1N4148*%
%TO.CLbN,Diode_SMD*%
%TO.CMnt,SMD*%
%TO.CRot,0*%
X104259250Y-123732000D03*
D11*
X106534250Y-122607000D02*
X106534250Y-124857000D01*
X101984250Y-124857000D01*
X101984250Y-122607000D01*
X106534250Y-122607000D01*
D12*
%TO.P,D10,1,K*%
X105659250Y-123732000D03*
D13*
%TO.P,D10,2,A*%
X102859250Y-123732000D03*
%TD*%
D10*
%TO.C,D25*%
%TO.CFtp,D_1206_3216Metric*%
%TO.CVal,1N4148*%
%TO.CLbN,Diode_SMD*%
%TO.CMnt,SMD*%
%TO.CRot,0*%
X161409250Y-123732000D03*
D11*
X163684250Y-122607000D02*
X163684250Y-124857000D01*
X159134250Y-124857000D01*
X159134250Y-122607000D01*
X163684250Y-122607000D01*
D12*
%TO.P,D25,1,K*%
X162809250Y-123732000D03*
D13*
%TO.P,D25,2,A*%
X160009250Y-123732000D03*
%TD*%
D10*
%TO.C,D20*%
%TO.CFtp,D_1206_3216Metric*%
%TO.CVal,1N4148*%
%TO.CLbN,Diode_SMD*%
%TO.CMnt,SMD*%
%TO.CRot,0*%
X142359250Y-123732000D03*
D11*
X144634250Y-122607000D02*
X144634250Y-124857000D01*
X140084250Y-124857000D01*
X140084250Y-122607000D01*
X144634250Y-122607000D01*
D12*
%TO.P,D20,1,K*%
X143759250Y-123732000D03*
D13*
%TO.P,D20,2,A*%
X140959250Y-123732000D03*
%TD*%
D10*
%TO.C,D23*%
%TO.CFtp,D_1206_3216Metric*%
%TO.CVal,1N4148*%
%TO.CLbN,Diode_SMD*%
%TO.CMnt,SMD*%
%TO.CRot,0*%
X161409250Y-85632000D03*
D11*
X163684250Y-84507000D02*
X163684250Y-86757000D01*
X159134250Y-86757000D01*
X159134250Y-84507000D01*
X163684250Y-84507000D01*
D12*
%TO.P,D23,1,K*%
X162809250Y-85632000D03*
D13*
%TO.P,D23,2,A*%
X160009250Y-85632000D03*
%TD*%
D10*
%TO.C,D29*%
%TO.CFtp,D_1206_3216Metric*%
%TO.CVal,1N4148*%
%TO.CLbN,Diode_SMD*%
%TO.CMnt,SMD*%
%TO.CRot,0*%
X180459250Y-104682000D03*
D11*
X182734250Y-103557000D02*
X182734250Y-105807000D01*
X178184250Y-105807000D01*
X178184250Y-103557000D01*
X182734250Y-103557000D01*
D12*
%TO.P,D29,1,K*%
X181859250Y-104682000D03*
D13*
%TO.P,D29,2,A*%
X179059250Y-104682000D03*
%TD*%
D10*
%TO.C,D12*%
%TO.CFtp,D_1206_3216Metric*%
%TO.CVal,1N4148*%
%TO.CLbN,Diode_SMD*%
%TO.CMnt,SMD*%
%TO.CRot,0*%
X123309250Y-66582000D03*
D11*
X125584250Y-65457000D02*
X125584250Y-67707000D01*
X121034250Y-67707000D01*
X121034250Y-65457000D01*
X125584250Y-65457000D01*
D12*
%TO.P,D12,1,K*%
X124709250Y-66582000D03*
D13*
%TO.P,D12,2,A*%
X121909250Y-66582000D03*
%TD*%
D10*
%TO.C,D1*%
%TO.CFtp,D_1206_3216Metric*%
%TO.CVal,1N4148*%
%TO.CLbN,Diode_SMD*%
%TO.CMnt,SMD*%
%TO.CRot,0*%
X85209250Y-47532000D03*
D11*
X87484250Y-46407000D02*
X87484250Y-48657000D01*
X82934250Y-48657000D01*
X82934250Y-46407000D01*
X87484250Y-46407000D01*
D12*
%TO.P,D1,1,K*%
X86609250Y-47532000D03*
D13*
%TO.P,D1,2,A*%
X83809250Y-47532000D03*
%TD*%
D10*
%TO.C,D33*%
%TO.CFtp,D_1206_3216Metric*%
%TO.CVal,1N4148*%
%TO.CLbN,Diode_SMD*%
%TO.CMnt,SMD*%
%TO.CRot,0*%
X199509250Y-85632000D03*
D11*
X201784250Y-84507000D02*
X201784250Y-86757000D01*
X197234250Y-86757000D01*
X197234250Y-84507000D01*
X201784250Y-84507000D01*
D12*
%TO.P,D33,1,K*%
X200909250Y-85632000D03*
D13*
%TO.P,D33,2,A*%
X198109250Y-85632000D03*
%TD*%
D10*
%TO.C,D2*%
%TO.CFtp,D_1206_3216Metric*%
%TO.CVal,1N4148*%
%TO.CLbN,Diode_SMD*%
%TO.CMnt,SMD*%
%TO.CRot,0*%
X85209250Y-66532000D03*
D11*
X87484250Y-65407000D02*
X87484250Y-67657000D01*
X82934250Y-67657000D01*
X82934250Y-65407000D01*
X87484250Y-65407000D01*
D12*
%TO.P,D2,1,K*%
X86609250Y-66532000D03*
D13*
%TO.P,D2,2,A*%
X83809250Y-66532000D03*
%TD*%
D10*
%TO.C,D3*%
%TO.CFtp,D_1206_3216Metric*%
%TO.CVal,1N4148*%
%TO.CLbN,Diode_SMD*%
%TO.CMnt,SMD*%
%TO.CRot,0*%
X85209250Y-85632000D03*
D11*
X87484250Y-84507000D02*
X87484250Y-86757000D01*
X82934250Y-86757000D01*
X82934250Y-84507000D01*
X87484250Y-84507000D01*
D12*
%TO.P,D3,1,K*%
X86609250Y-85632000D03*
D13*
%TO.P,D3,2,A*%
X83809250Y-85632000D03*
%TD*%
D10*
%TO.C,D31*%
%TO.CFtp,D_1206_3216Metric*%
%TO.CVal,1N4148*%
%TO.CLbN,Diode_SMD*%
%TO.CMnt,SMD*%
%TO.CRot,0*%
X199509250Y-47532000D03*
D11*
X201784250Y-46407000D02*
X201784250Y-48657000D01*
X197234250Y-48657000D01*
X197234250Y-46407000D01*
X201784250Y-46407000D01*
D12*
%TO.P,D31,1,K*%
X200909250Y-47532000D03*
D13*
%TO.P,D31,2,A*%
X198109250Y-47532000D03*
%TD*%
D10*
%TO.C,D21*%
%TO.CFtp,D_1206_3216Metric*%
%TO.CVal,1N4148*%
%TO.CLbN,Diode_SMD*%
%TO.CMnt,SMD*%
%TO.CRot,0*%
X161409250Y-47532000D03*
D11*
X163684250Y-46407000D02*
X163684250Y-48657000D01*
X159134250Y-48657000D01*
X159134250Y-46407000D01*
X163684250Y-46407000D01*
D12*
%TO.P,D21,1,K*%
X162809250Y-47532000D03*
D13*
%TO.P,D21,2,A*%
X160009250Y-47532000D03*
%TD*%
D10*
%TO.C,D11*%
%TO.CFtp,D_1206_3216Metric*%
%TO.CVal,1N4148*%
%TO.CLbN,Diode_SMD*%
%TO.CMnt,SMD*%
%TO.CRot,0*%
X123309250Y-47532000D03*
D11*
X125584250Y-46407000D02*
X125584250Y-48657000D01*
X121034250Y-48657000D01*
X121034250Y-46407000D01*
X125584250Y-46407000D01*
D12*
%TO.P,D11,1,K*%
X124709250Y-47532000D03*
D13*
%TO.P,D11,2,A*%
X121909250Y-47532000D03*
%TD*%
D10*
%TO.C,D22*%
%TO.CFtp,D_1206_3216Metric*%
%TO.CVal,1N4148*%
%TO.CLbN,Diode_SMD*%
%TO.CMnt,SMD*%
%TO.CRot,0*%
X161409250Y-66582000D03*
D11*
X163684250Y-65457000D02*
X163684250Y-67707000D01*
X159134250Y-67707000D01*
X159134250Y-65457000D01*
X163684250Y-65457000D01*
D12*
%TO.P,D22,1,K*%
X162809250Y-66582000D03*
D13*
%TO.P,D22,2,A*%
X160009250Y-66582000D03*
%TD*%
D10*
%TO.C,D16*%
%TO.CFtp,D_1206_3216Metric*%
%TO.CVal,1N4148*%
%TO.CLbN,Diode_SMD*%
%TO.CMnt,SMD*%
%TO.CRot,0*%
X142359250Y-47532000D03*
D11*
X144634250Y-46407000D02*
X144634250Y-48657000D01*
X140084250Y-48657000D01*
X140084250Y-46407000D01*
X144634250Y-46407000D01*
D12*
%TO.P,D16,1,K*%
X143759250Y-47532000D03*
D13*
%TO.P,D16,2,A*%
X140959250Y-47532000D03*
%TD*%
D10*
%TO.C,J1*%
%TO.CFtp,PinSocket_1x12_P2.54mm_Vertical*%
%TO.CVal,Conn_01x12_Pin*%
%TO.CLbN,Connector_PinSocket_2.54mm*%
%TO.CMnt,TH*%
%TO.CRot,0*%
X227449250Y-38134000D03*
D11*
X229244250Y-36339000D02*
X229244250Y-67829000D01*
X225704250Y-67829000D01*
X225704250Y-36339000D01*
X229244250Y-36339000D01*
D12*
%TO.P,J1,1,Pin_1*%
X227449250Y-38134000D03*
D13*
%TO.P,J1,2,Pin_2*%
X227449250Y-40674000D03*
%TO.P,J1,3,Pin_3*%
X227449250Y-43214000D03*
%TO.P,J1,4,Pin_4*%
X227449250Y-45754000D03*
%TO.P,J1,5,Pin_5*%
X227449250Y-48294000D03*
%TO.P,J1,6,Pin_6*%
X227449250Y-50834000D03*
%TO.P,J1,7,Pin_7*%
X227449250Y-53374000D03*
%TO.P,J1,8,Pin_8*%
X227449250Y-55914000D03*
%TO.P,J1,9,Pin_9*%
X227449250Y-58454000D03*
%TO.P,J1,10,Pin_10*%
X227449250Y-60994000D03*
%TO.P,J1,11,Pin_11*%
X227449250Y-63534000D03*
%TO.P,J1,12,Pin_12*%
X227449250Y-66074000D03*
%TD*%
D10*
%TO.C,D34*%
%TO.CFtp,D_1206_3216Metric*%
%TO.CVal,1N4148*%
%TO.CLbN,Diode_SMD*%
%TO.CMnt,SMD*%
%TO.CRot,65*%
X207891250Y-142528000D03*
D11*
X209872301Y-140941595D02*
X207949389Y-145065294D01*
X205910198Y-144114404D01*
X207833110Y-139990705D01*
X209872301Y-140941595D01*
D12*
%TO.P,D34,1,K*%
X208482916Y-141259169D03*
D13*
%TO.P,D34,2,A*%
X207299584Y-143796831D03*
%TD*%
D10*
%TO.C,D30*%
%TO.CFtp,D_1206_3216Metric*%
%TO.CVal,1N4148*%
%TO.CLbN,Diode_SMD*%
%TO.CMnt,SMD*%
%TO.CRot,65*%
X190619250Y-134400000D03*
D11*
X192600301Y-132813595D02*
X190677389Y-136937294D01*
X188638198Y-135986404D01*
X190561110Y-131862705D01*
X192600301Y-132813595D01*
D12*
%TO.P,D30,1,K*%
X191210916Y-133131169D03*
D13*
%TO.P,D30,2,A*%
X190027584Y-135668831D03*
%TD*%
D10*
%TO.C,D8*%
%TO.CFtp,D_1206_3216Metric*%
%TO.CVal,1N4148*%
%TO.CLbN,Diode_SMD*%
%TO.CMnt,SMD*%
%TO.CRot,0*%
X104209250Y-85532000D03*
D11*
X106484250Y-84407000D02*
X106484250Y-86657000D01*
X101934250Y-86657000D01*
X101934250Y-84407000D01*
X106484250Y-84407000D01*
D12*
%TO.P,D8,1,K*%
X105609250Y-85532000D03*
D13*
%TO.P,D8,2,A*%
X102809250Y-85532000D03*
%TD*%
D10*
%TO.C,D4*%
%TO.CFtp,D_1206_3216Metric*%
%TO.CVal,1N4148*%
%TO.CLbN,Diode_SMD*%
%TO.CMnt,SMD*%
%TO.CRot,0*%
X85209250Y-104682000D03*
D11*
X87484250Y-103557000D02*
X87484250Y-105807000D01*
X82934250Y-105807000D01*
X82934250Y-103557000D01*
X87484250Y-103557000D01*
D12*
%TO.P,D4,1,K*%
X86609250Y-104682000D03*
D13*
%TO.P,D4,2,A*%
X83809250Y-104682000D03*
%TD*%
D10*
%TO.C,D14*%
%TO.CFtp,D_1206_3216Metric*%
%TO.CVal,1N4148*%
%TO.CLbN,Diode_SMD*%
%TO.CMnt,SMD*%
%TO.CRot,0*%
X123309250Y-104632000D03*
D11*
X125584250Y-103507000D02*
X125584250Y-105757000D01*
X121034250Y-105757000D01*
X121034250Y-103507000D01*
X125584250Y-103507000D01*
D12*
%TO.P,D14,1,K*%
X124709250Y-104632000D03*
D13*
%TO.P,D14,2,A*%
X121909250Y-104632000D03*
%TD*%
M02*
